<?xml version="1.0" encoding="UTF-8"?>
<svg id="Layer_1" xmlns="http://www.w3.org/2000/svg" version="1.1" viewBox="0 0 1730.97 724.59">
  <!-- Generator: Adobe Illustrator 30.0.0, SVG Export Plug-In . SVG Version: 2.1.1 Build 123)  -->
  <defs>
    <style>
      .st0 {
        fill: #fff;
      }

      .st1 {
        fill: #efb11e;
      }

      .st2 {
        fill: none;
      }
    </style>
  </defs>
  <g>
    <path class="st0" d="M.24,106.61h121.06c27.23,0,40.25,13.02,40.25,40.25v62.45c0,27.23-13.02,40.25-40.25,40.25H55.89v64.23H.24V106.61ZM100.58,203.99c4.14,0,5.33-1.18,5.33-5.33v-41.14c0-4.14-1.18-5.33-5.33-5.33h-44.69v51.8h44.69Z"/>
    <path class="st0" d="M219.27,106.61h73.41l63.05,207.19h-59.2l-10.95-42.62h-60.97l-10.95,42.62h-56.83l62.45-207.19ZM274.32,226.79l-19.24-74.88-19.24,74.88h38.48Z"/>
    <path class="st0" d="M367.56,273.55v-126.68c0-27.23,13.02-40.25,40.25-40.25h81.69c27.23,0,40.25,13.02,40.25,40.25v28.12h-55.05v-17.46c0-4.14-1.18-5.33-5.33-5.33h-40.85c-4.14,0-5.33,1.18-5.33,5.33v105.37c0,4.14,1.18,5.33,5.33,5.33h40.85c4.14,0,5.33-1.18,5.33-5.33v-26.05h-30.49v-43.81h85.54v80.51c0,27.23-13.02,40.25-40.25,40.25h-81.69c-27.23,0-40.25-13.02-40.25-40.25Z"/>
    <path class="st0" d="M561.72,106.61h145.63v46.17h-89.98v32.26h71.33v45.58h-71.33v37h89.98v46.17h-145.63V106.61Z"/>
  </g>
  <g>
    <path class="st1" d="M0,514.05v-173.21h57.74v159.7c0,3.69,1.84,5.53,5.53,5.53h39.92c3.69,0,5.53-1.84,5.53-5.53v-159.7h57.74v173.21c0,27.03-14.74,41.77-41.77,41.77H41.77c-27.03,0-41.77-14.74-41.77-41.77Z"/>
    <path class="st1" d="M203,340.83h57.43l70.33,114.25v-114.25h55.89v214.98h-51.29l-76.47-123.15v123.15h-55.89v-214.98Z"/>
    <path class="st1" d="M424.12,340.83h127.76c28.25,0,41.77,13.51,41.77,41.77v131.44c0,28.25-13.51,41.77-41.77,41.77h-127.76v-214.98ZM530.38,507.9c4.3,0,5.53-1.23,5.53-5.53v-108.1c0-4.3-1.23-5.53-5.53-5.53h-48.52v119.16h48.52Z"/>
    <path class="st1" d="M628.35,340.83h151.1v47.91h-93.36v33.47h74.01v47.3h-74.01v38.39h93.36v47.91h-151.1v-214.98Z"/>
    <path class="st1" d="M810.16,340.83h125.92c28.25,0,41.77,13.51,41.77,41.77v55.89c0,23.65-9.52,36.85-29.18,40.85l37.77,76.47h-58.35l-36.55-71.86h-23.65v71.86h-57.74v-214.98ZM914.58,438.5c4.3,0,5.53-1.23,5.53-5.53v-39.92c0-4.3-1.23-5.53-5.53-5.53h-46.68v50.98h46.68Z"/>
  </g>
  <g>
    <path class="st0" d="M10.23,697.34v-84.21c0-18.1,9.05-26.76,27.15-26.76h52.53c18.1,0,26.36,8.66,26.36,26.76v25.77h-36.99v-18.3c0-2.75-.79-3.54-3.54-3.54h-24.99c-2.75,0-3.54.79-3.54,3.54v69.25c0,2.75.79,3.54,3.54,3.54h24.99c2.75,0,3.54-.79,3.54-3.54v-18.3h36.99v25.77c0,18.1-8.66,26.76-26.76,26.76h-52.53c-18.1,0-26.76-8.66-26.76-26.76Z"/>
    <path class="st0" d="M133.2,697.34v-84.21c0-18.1,8.66-26.76,26.76-26.76h55.29c18.1,0,26.76,8.66,26.76,26.76v84.21c0,18.1-8.66,26.76-26.76,26.76h-55.29c-18.1,0-26.76-8.66-26.76-26.76ZM173.73,693.4h27.74c2.75,0,3.54-.79,3.54-3.54v-69.25c0-2.75-.79-3.54-3.54-3.54h-27.74c-2.75,0-3.54.79-3.54,3.54v69.25c0,2.75.79,3.54,3.54,3.54Z"/>
    <path class="st0" d="M264.23,586.37h36.79l45.05,73.19v-73.19h35.81v137.72h-32.86l-48.99-78.9v78.9h-35.81v-137.72Z"/>
    <path class="st0" d="M401.75,697.34v-18.89h36.99v12.59c0,2.75.79,3.54,3.54,3.54h25.38c2.75,0,3.54-.79,3.54-3.54v-12c0-2.16-.98-2.75-4.13-3.54l-36.6-10.03c-19.28-5.31-28.33-8.66-28.33-28.33v-24c0-18.1,8.66-26.76,26.76-26.76h50.17c18.1,0,26.76,8.66,26.76,26.76v17.51h-36.99v-11.21c0-2.75-.79-3.54-3.54-3.54h-22.63c-2.75,0-3.54.79-3.54,3.54v10.62c0,2.16.59,2.75,4.13,3.74l36.6,9.84c19.28,5.12,28.33,8.66,28.33,28.33v25.38c0,18.1-8.66,26.76-26.76,26.76h-52.92c-18.1,0-26.76-8.66-26.76-26.76Z"/>
    <path class="st0" d="M552.26,617.85h-34.43v-31.48h105.85v31.48h-34.43v106.24h-36.99v-106.24Z"/>
    <path class="st0" d="M638.63,697.34v-110.96h36.99v102.31c0,2.36,1.18,3.54,3.54,3.54h25.58c2.36,0,3.54-1.18,3.54-3.54v-102.31h36.99v110.96c0,17.31-9.44,26.76-26.76,26.76h-53.12c-17.31,0-26.76-9.44-26.76-26.76Z"/>
    <path class="st0" d="M766.91,697.34v-84.21c0-18.1,9.05-26.76,27.15-26.76h52.53c18.1,0,26.36,8.66,26.36,26.76v25.77h-36.99v-18.3c0-2.75-.79-3.54-3.54-3.54h-24.99c-2.75,0-3.54.79-3.54,3.54v69.25c0,2.75.79,3.54,3.54,3.54h24.99c2.75,0,3.54-.79,3.54-3.54v-18.3h36.99v25.77c0,18.1-8.66,26.76-26.76,26.76h-52.53c-18.1,0-26.76-8.66-26.76-26.76Z"/>
    <path class="st0" d="M916.04,617.85h-34.43v-31.48h105.85v31.48h-34.43v106.24h-36.99v-106.24Z"/>
    <path class="st0" d="M1003,586.37h36.99v137.72h-36.99v-137.72Z"/>
    <path class="st0" d="M1062.22,697.34v-84.21c0-18.1,8.66-26.76,26.76-26.76h55.29c18.1,0,26.76,8.66,26.76,26.76v84.21c0,18.1-8.66,26.76-26.76,26.76h-55.29c-18.1,0-26.76-8.66-26.76-26.76ZM1102.75,693.4h27.74c2.75,0,3.54-.79,3.54-3.54v-69.25c0-2.75-.79-3.54-3.54-3.54h-27.74c-2.75,0-3.54.79-3.54,3.54v69.25c0,2.75.79,3.54,3.54,3.54Z"/>
    <path class="st0" d="M1193.26,586.37h36.79l45.06,73.19v-73.19h35.81v137.72h-32.86l-48.99-78.9v78.9h-35.81v-137.72Z"/>
  </g>
  <polygon class="st2" points="1133.65 404.46 1096.06 440.85 1171.25 440.85 1133.65 404.46"/>
  <path class="st1" d="M1540.2,17.97V0h-28.6v15l-385.42,102.84v4.71h-106.13v59.29h106.13v210.37l-64.72,62.64h144.38l-64.66-62.59v-210.43h293.73v-59.29h-268.2l344.89-92.02v35.83h-37.9l-.61,21.66h105.63l-.61-21.66h-37.9v-31.44l167.12,87.64h-90.43v59.29h114.08s0-63.83,0-63.83l-190.77-100.04ZM1171.25,440.85h-75.19l37.6-36.39,37.6,36.39Z"/>
  <rect class="st1" x="1449.91" y="103.01" width="151.98" height="98.36"/>
  <path class="st1" d="M1595.81,678.18l-13.09-461.8h-13.56l2.31,81.41-81.41-81.41h-20.99l-13.09,461.8h-28.6v46.41h197.01v-46.41h-28.6ZM1572.44,331.98l5.43,191.48-98.45-98.45,93.03-93.03ZM1482.31,227.79l87.58,87.58-92.69,92.69,5.11-180.27ZM1476.26,441.01l99.59,99.59-105.4,105.4,5.81-204.98ZM1469.54,678.18l.35-12.46,108.92-108.92,3.44,121.37h-112.71Z"/>
</svg>