<?xml version="1.0" encoding="UTF-8"?>
<svg id="Layer_1" xmlns="http://www.w3.org/2000/svg" version="1.1" viewBox="0 0 964.14 580.89">
  <!-- Generator: Adobe Illustrator 30.0.0, SVG Export Plug-In . SVG Version: 2.1.1 Build 123)  -->
  <defs>
    <style>
      .st0 {
        fill: #fff;
      }

      .st1 {
        fill: #eeb11e;
      }

      .st2 {
        fill: none;
      }
    </style>
  </defs>
  <g>
    <path class="st0" d="M.17,147.17h85.03c19.13,0,28.27,9.14,28.27,28.27v43.86c0,19.13-9.14,28.27-28.27,28.27h-45.94v45.11H.17v-145.52ZM70.64,215.57c2.91,0,3.74-.83,3.74-3.74v-28.9c0-2.91-.83-3.74-3.74-3.74h-31.39v36.38h31.39Z"/>
    <path class="st0" d="M154.01,147.17h51.56l44.28,145.52h-41.58l-7.69-29.94h-42.82l-7.69,29.94h-39.92l43.86-145.52h0ZM192.67,231.58l-13.51-52.59-13.51,52.59h27.03Z"/>
    <path class="st0" d="M258.16,264.42v-88.98c0-19.13,9.14-28.27,28.27-28.27h57.38c19.13,0,28.27,9.14,28.27,28.27v19.75h-38.67v-12.26c0-2.91-.83-3.74-3.74-3.74h-28.69c-2.91,0-3.74.83-3.74,3.74v74.01c0,2.91.83,3.74,3.74,3.74h28.69c2.91,0,3.74-.83,3.74-3.74v-18.3h-21.42v-30.77h60.08v56.55c0,19.13-9.14,28.27-28.27,28.27h-57.38c-19.13,0-28.27-9.14-28.27-28.27Z"/>
    <path class="st0" d="M394.54,147.17h102.29v32.43h-63.2v22.66h50.1v32.01h-50.1v25.99h63.2v32.43h-102.29v-145.52Z"/>
  </g>
  <g>
    <path class="st1" d="M0,433.34v-121.66h40.56v112.17c0,2.59,1.29,3.88,3.88,3.88h28.04c2.59,0,3.88-1.29,3.88-3.88v-112.17h40.56v121.66c0,18.99-10.35,29.34-29.34,29.34H29.34c-18.99,0-29.34-10.35-29.34-29.34Z"/>
    <path class="st1" d="M142.58,311.68h40.34l49.4,80.25v-80.25h39.26v151h-36.02l-53.71-86.5v86.5h-39.26v-151h0Z"/>
    <path class="st1" d="M297.89,311.68h89.74c19.84,0,29.34,9.49,29.34,29.34v92.32c0,19.84-9.49,29.34-29.34,29.34h-89.74v-151h0ZM372.52,429.03c3.02,0,3.88-.86,3.88-3.88v-75.93c0-3.02-.86-3.88-3.88-3.88h-34.08v83.69h34.08Z"/>
    <path class="st1" d="M441.34,311.68h106.13v33.65h-65.57v23.51h51.98v33.22h-51.98v26.96h65.57v33.65h-106.13v-151h0Z"/>
    <path class="st1" d="M569.03,311.68h88.44c19.84,0,29.34,9.49,29.34,29.34v39.26c0,16.61-6.69,25.88-20.5,28.69l26.53,53.71h-40.98l-25.67-50.47h-16.61v50.47h-40.56v-151h0ZM642.38,380.28c3.02,0,3.88-.86,3.88-3.88v-28.04c0-3.02-.86-3.88-3.88-3.88h-32.79v35.81h32.79Z"/>
  </g>
  <g>
    <path class="st0" d="M7.19,562.08v-59.15c0-12.71,6.36-18.8,19.07-18.8h36.9c12.71,0,18.51,6.08,18.51,18.8v18.1h-25.98v-12.85c0-1.93-.55-2.49-2.49-2.49h-17.55c-1.93,0-2.49.55-2.49,2.49v48.64c0,1.93.55,2.49,2.49,2.49h17.55c1.93,0,2.49-.55,2.49-2.49v-12.85h25.98v18.1c0,12.71-6.08,18.8-18.8,18.8H25.97c-12.71,0-18.8-6.08-18.8-18.8h0Z"/>
    <path class="st0" d="M93.56,562.08v-59.15c0-12.71,6.08-18.8,18.8-18.8h38.83c12.71,0,18.8,6.08,18.8,18.8v59.15c0,12.71-6.08,18.8-18.8,18.8h-38.83c-12.71,0-18.8-6.08-18.8-18.8ZM122.02,559.32h19.48c1.93,0,2.49-.55,2.49-2.49v-48.64c0-1.93-.55-2.49-2.49-2.49h-19.48c-1.93,0-2.49.55-2.49,2.49v48.64c0,1.93.55,2.49,2.49,2.49Z"/>
    <path class="st0" d="M185.59,484.14h25.84l31.64,51.41v-51.41h25.15v96.73h-23.08l-34.41-55.42v55.42h-25.15v-96.73h0Z"/>
    <path class="st0" d="M282.18,562.08v-13.27h25.98v8.84c0,1.93.55,2.49,2.49,2.49h17.83c1.93,0,2.49-.55,2.49-2.49v-8.43c0-1.52-.69-1.93-2.9-2.49l-25.71-7.04c-13.54-3.73-19.9-6.08-19.9-19.9v-16.86c0-12.71,6.08-18.8,18.8-18.8h35.24c12.71,0,18.8,6.08,18.8,18.8v12.3h-25.98v-7.87c0-1.93-.55-2.49-2.49-2.49h-15.89c-1.93,0-2.49.55-2.49,2.49v7.46c0,1.52.41,1.93,2.9,2.63l25.71,6.91c13.54,3.6,19.9,6.08,19.9,19.9v17.83c0,12.71-6.08,18.8-18.8,18.8h-37.17c-12.71,0-18.8-6.08-18.8-18.8h0Z"/>
    <path class="st0" d="M387.89,506.25h-24.18v-22.11h74.35v22.11h-24.18v74.62h-25.98v-74.62Z"/>
    <path class="st0" d="M448.56,562.08v-77.94h25.98v71.86c0,1.66.83,2.49,2.49,2.49h17.97c1.66,0,2.49-.83,2.49-2.49v-71.86h25.98v77.94c0,12.16-6.63,18.8-18.8,18.8h-37.31c-12.16,0-18.8-6.63-18.8-18.8h0Z"/>
    <path class="st0" d="M538.66,562.08v-59.15c0-12.71,6.36-18.8,19.07-18.8h36.9c12.71,0,18.51,6.08,18.51,18.8v18.1h-25.98v-12.85c0-1.93-.55-2.49-2.49-2.49h-17.55c-1.93,0-2.49.55-2.49,2.49v48.64c0,1.93.55,2.49,2.49,2.49h17.55c1.93,0,2.49-.55,2.49-2.49v-12.85h25.98v18.1c0,12.71-6.08,18.8-18.8,18.8h-36.9c-12.71,0-18.8-6.08-18.8-18.8h0Z"/>
    <path class="st0" d="M643.4,506.25h-24.18v-22.11h74.35v22.11h-24.18v74.62h-25.98v-74.62Z"/>
    <path class="st0" d="M704.48,484.14h25.98v96.73h-25.98v-96.73Z"/>
    <path class="st0" d="M746.07,562.08v-59.15c0-12.71,6.08-18.8,18.8-18.8h38.83c12.71,0,18.8,6.08,18.8,18.8v59.15c0,12.71-6.08,18.8-18.8,18.8h-38.83c-12.71,0-18.8-6.08-18.8-18.8ZM774.54,559.32h19.48c1.93,0,2.49-.55,2.49-2.49v-48.64c0-1.93-.55-2.49-2.49-2.49h-19.48c-1.93,0-2.49.55-2.49,2.49v48.64c0,1.93.55,2.49,2.49,2.49Z"/>
    <path class="st0" d="M838.11,484.14h25.84l31.65,51.41v-51.41h25.15v96.73h-23.08l-34.41-55.42v55.42h-25.15v-96.73h0Z"/>
  </g>
  <g>
    <polygon class="st2" points="597.7 248.13 574.64 270.45 620.76 270.45 597.7 248.13"/>
    <path class="st1" d="M847.1,11.02V0h-17.55v9.2l-236.45,63.09v2.89h-65.11v36.37h65.11v129.06l-39.7,38.43h88.57l-39.67-38.4V111.55h180.2v-36.37h-164.53l211.58-56.45v21.98h-23.25l-.37,13.29h64.8l-.37-13.29h-23.25v-19.29l102.52,53.76h-55.48v36.37h69.99v-39.16l-117.03-61.37h0ZM620.76,270.45h-46.13l23.07-22.32,23.07,22.32h0Z"/>
    <rect class="st1" x="791.71" y="63.19" width="93.24" height="60.34"/>
    <path class="st1" d="M881.22,416.05l-8.03-283.3h-8.32l1.42,49.94-49.94-49.94h-12.88l-8.03,283.3h-17.55v28.47h120.86v-28.47h-17.55.01ZM866.88,203.66l3.33,117.47-60.4-60.4,57.07-57.07h0ZM811.59,139.74l53.73,53.73-56.86,56.86,3.13-110.59h0ZM807.88,270.55l61.1,61.1-64.66,64.66,3.56-125.75h0ZM803.76,416.05l.21-7.64,66.82-66.82,2.11,74.46h-69.14Z"/>
  </g>
</svg>